<?xml version="1.0" encoding="UTF-8"?>
<!DOCTYPE svg PUBLIC "-//W3C//DTD SVG 1.1//EN" "http://www.w3.org/Graphics/SVG/1.1/DTD/svg11.dtd">
<svg xmlns="http://www.w3.org/2000/svg" version="1.1" width="80px" height="80px" style="shape-rendering:geometricPrecision; text-rendering:geometricPrecision; image-rendering:optimizeQuality; fill-rule:evenodd; clip-rule:evenodd" xmlns:xlink="http://www.w3.org/1999/xlink">
<g><path style="opacity:1" fill="#fff0ee" d="M 32.5,1.5 C 63.3082,0.807742 78.1415,15.8077 77,46.5C 70.8734,69.1601 56.0401,79.3268 32.5,77C 9.83991,70.8734 -0.326759,56.0401 2,32.5C 5.68073,15.6534 15.8474,5.32007 32.5,1.5 Z M 33.5,4.5 C 40.414,3.96398 47.0806,4.96398 53.5,7.5C 54.3857,8.32496 54.719,9.32496 54.5,10.5C 47.5526,11.122 40.886,10.122 34.5,7.5C 33.6143,6.67504 33.281,5.67504 33.5,4.5 Z M 24.5,9.5 C 29.0803,9.11343 33.4136,9.94676 37.5,12C 38.6168,15.0731 38.7835,18.2397 38,21.5C 33.5728,24.5363 28.9062,27.203 24,29.5C 21.2953,28.0609 18.462,27.0609 15.5,26.5C 14.616,18.5935 17.616,12.9268 24.5,9.5 Z M 71.5,25.5 C 71.5,26.8333 70.8333,27.5 69.5,27.5C 63.0787,23.9941 59.0787,18.6607 57.5,11.5C 61.5025,11.9713 64.6692,13.9713 67,17.5C 68.7653,20.0321 70.2653,22.6987 71.5,25.5 Z M 10.5,19.5 C 11.5,19.5 12.5,19.5 13.5,19.5C 13.3215,22.2165 12.8215,24.8832 12,27.5C 9.62891,30.4486 8.12891,33.782 7.5,37.5C 6.5,37.5 5.5,37.5 4.5,37.5C 5.10501,31.0183 7.10501,25.0183 10.5,19.5 Z M 37.5,25.5 C 42.1906,26.678 46.524,28.678 50.5,31.5C 51.8333,36.8333 51.8333,42.1667 50.5,47.5C 46.8418,49.5793 43.0085,51.246 39,52.5C 34.5563,50.9442 30.5563,48.6109 27,45.5C 26.5008,40.8452 26.3342,36.1785 26.5,31.5C 30.6119,30.2781 34.2786,28.2781 37.5,25.5 Z M 59.5,27.5 C 65.6844,27.4959 69.8511,30.4959 72,36.5C 72.6746,42.5246 70.5079,47.3579 65.5,51C 61.4122,51.7111 57.9122,50.5445 55,47.5C 54.3333,42.1667 54.3333,36.8333 55,31.5C 57.1184,30.7171 58.6184,29.3838 59.5,27.5 Z M 13.5,57.5 C 13.1788,59.0481 12.1788,59.7148 10.5,59.5C 7.10501,53.9817 5.10501,47.9817 4.5,41.5C 5.5,41.5 6.5,41.5 7.5,41.5C 8.26224,45.6911 10.0956,49.3578 13,52.5C 13.4935,54.1341 13.6602,55.8008 13.5,57.5 Z M 21.5,49.5 C 27.1666,50.5844 32.5,52.5844 37.5,55.5C 40.7387,64.3571 37.7387,69.0238 28.5,69.5C 19.0186,67.528 15.3519,61.8613 17.5,52.5C 19.261,51.9649 20.5943,50.9649 21.5,49.5 Z M 69.5,51.5 C 70.8333,51.5 71.5,52.1667 71.5,53.5C 69.2693,59.2948 65.6026,63.9615 60.5,67.5C 58.8212,67.7148 57.8212,67.0481 57.5,65.5C 60.11,59.5945 64.11,54.9279 69.5,51.5 Z M 40.5,68.5 C 45.1667,68.5 49.8333,68.5 54.5,68.5C 54.4392,71.0495 53.1059,72.5495 50.5,73C 44.899,74.2168 39.2324,74.7168 33.5,74.5C 33.281,73.325 33.6143,72.325 34.5,71.5C 36.604,70.4805 38.604,69.4805 40.5,68.5 Z"/></g>
<g><path style="opacity:0.749" fill="#fe5251" d="M 71.5,25.5 C 72.404,26.209 72.7373,27.209 72.5,28.5C 71.209,28.7373 70.209,28.404 69.5,27.5C 70.8333,27.5 71.5,26.8333 71.5,25.5 Z"/></g>
<g><path style="opacity:0.749" fill="#fe5251" d="M 69.5,51.5 C 70.209,50.596 71.209,50.2627 72.5,50.5C 72.7373,51.791 72.404,52.791 71.5,53.5C 71.5,52.1667 70.8333,51.5 69.5,51.5 Z"/></g>
<g><path style="opacity:0.725" fill="#ff5450" d="M 13.5,57.5 C 14.4345,58.5676 14.7678,59.901 14.5,61.5C 12.6203,61.7709 11.287,61.1042 10.5,59.5C 12.1788,59.7148 13.1788,59.0481 13.5,57.5 Z"/></g>
<g><path style="opacity:0.576" fill="#ff6f6b" d="M 57.5,65.5 C 57.8212,67.0481 58.8212,67.7148 60.5,67.5C 59.4324,68.4345 58.099,68.7678 56.5,68.5C 56.2627,67.209 56.596,66.209 57.5,65.5 Z"/></g>
</svg>
