<?xml version="1.0" encoding="utf-8"?>
<svg viewBox="0 0 512 512" xmlns="http://www.w3.org/2000/svg">
  <g id="Stadium">
    <g id="Stadium-2" data-name="Stadium">
      <path d="M429.48,232.5055c0-.0126-.0027-.0252-.0027-.0378-.05-28.8981-35.2233-52.8948-89.23-65.11V117.6628a9.4494,9.4494,0,0,0-9.45-9.45h-149.59a9.4517,9.4517,0,0,0-9.45,9.45v49.6917c-54.0162,12.2184-89.1891,36.2187-89.2332,65.1231v.0252c0,.0063-.0036.0153-.0036.0252A36.37,36.37,0,0,0,85.4748,246.69l33.768,149.7258a9.4466,9.4466,0,0,0,9.2169,7.371H383.5439a9.4546,9.4546,0,0,0,9.22-7.371l33.7615-149.7357A36.3654,36.3654,0,0,0,429.48,232.528ZM104.1327,241.978H171.76v36.19C136.2213,269.4865,111.9159,255.86,104.1327,241.978Zm101.8647-80.4609V141.6028h18.9v41.9517h-18.9V161.5171Zm100.0124,0v22.0374h-18.9V141.6028h18.9Zm-67.07-2.5641v-5.8239h34.1236v18.9H238.94ZM190.6569,215.89H321.344V282.109A379.8547,379.8547,0,0,1,256,287.536a379.8465,379.8465,0,0,1-65.3435-5.427Zm149.59,26.0883h67.6242c-7.7868,13.8816-32.0922,27.5085-67.6242,36.19Zm67.6242-18.9H340.2467V186.9C375.7787,195.5749,400.0841,209.2018,407.8709,223.078Zm-236.114-36.1809V223.078h-67.63C111.92,209.2018,136.2249,195.5749,171.7569,186.8971ZM375.99,384.8836H136.02L111.069,274.2466c30.501,19.7,82.9332,32.1894,144.9341,32.1894s114.4305-12.4893,144.9351-32.1894Z" style="fill: rgb(255, 255, 255);"/>
      <rect x="156.7782" y="324.8257" width="18.9" height="32.5557" style="fill: rgb(255, 255, 255);"/>
      <rect x="216.6282" y="324.8257" width="18.9" height="32.5557" style="fill: rgb(255, 255, 255);"/>
      <rect x="276.4781" y="324.8257" width="18.9" height="32.5557" style="fill: rgb(255, 255, 255);"/>
      <rect x="336.3281" y="324.8257" width="18.9" height="32.5557" style="fill: rgb(255, 255, 255);"/>
    </g>
  </g>
</svg>