<?xml version="1.0" encoding="utf-8"?>
<svg viewBox="0 0 24 21.986" xmlns="http://www.w3.org/2000/svg">
  <g>
    <g style="transform-origin: 16.27px 9.49046px;" transform="matrix(0, 1, -1, 0, -2.758294, 5.203792)">
      <path d="M19.841,3.24A10.987,10.987,0,0,0,8.54.573l1.266,3.8a7.033,7.033,0,0,1,8.809,9.158L17,11.891v7.092h7l-2.407-2.439A11.049,11.049,0,0,0,19.841,3.24Z" style="fill: rgb(255, 0, 0);"/>
    </g>
    <g style="transform-origin: 7.767px 12.484px;" transform="matrix(0, 1, -0.997007, 0, 2.502369, -4.691943)">
      <g>
        <g style="transform-origin: 7.767px 12.484px;" transform="matrix(1, 0, 0, 1, -0.000001, -0.000001)">
          <path d="M1,10.942A11.05,11.05,0,0,0,12.013,21.986a11.114,11.114,0,0,0,3.521-.575l-1.266-3.8A7.035,7.035,0,0,1,5.48,8.391L7,9.891V6.034c.021-.02.038-.044.06-.065L7,5.909V2.982H0L2.482,5.431A10.951,10.951,0,0,0,1,10.942Z" style="fill: rgb(7, 255, 0);"/>
        </g>
      </g>
    </g>
  </g>
</svg>