<?xml version="1.0" encoding="utf-8"?>
<svg viewBox="0 0 6.82666 6.82666" style="shape-rendering:geometricPrecision; text-rendering:geometricPrecision; image-rendering:optimizeQuality; fill-rule:evenodd; clip-rule:evenodd" xmlns="http://www.w3.org/2000/svg">
  <defs>
    <style type="text/css">
   
    .fil6 {fill:none}
    .fil1 {fill:#424343}
    .fil0 {fill:#4C4C4C}
    .fil5 {fill:#5C5C5C}
    .fil3 {fill:#797979}
    .fil2 {fill:#6B6B6B;fill-rule:nonzero}
    .fil4 {fill:#8D8E8E;fill-rule:nonzero}
   
  </style>
  </defs>
  <g id="Layer_x0020_1">
    <g id="_274762536">
      <path id="_274762272" class="fil2" d="M3.46493 1.816c-0.0589094,0 -0.106669,0.0477598 -0.106669,0.106669 0,0.000677165 0.46563,0.667894 0.51365,0.742972l0.0659016 0.0897677 1.24809 0.0665433c0.0457913,0.036815 0.112768,0.0295394 0.149583,-0.016252 0.036815,-0.0457913 0.267039,0.0601457 0.221248,0.0233307 -0.241642,-0.194469 -0.773736,-0.712587 -1.00709,-0.883461 -0.272272,-0.199382 -0.755764,-0.129571 -1.08472,-0.129571z" style="fill: rgb(255, 255, 255);"/>
      <path id="_274761912" class="fil2" d="M3.4509 2.52583l-0.470224 -0.658311c-0.018689,-0.0308819 -0.0525945,-0.0515236 -0.0913228,-0.0515236l-1.91234 0 -0.108063 0.00122441c0.00675591,0.100941 0.0268701,0.168606 0.0208465,0.167445l0.000248031 -0.000177165 0.460087 0.644126 0.0102756 0.071815 0.000299213 0.00211024 0.202248 0 -7.87402e-006 -0.00170472 0.391114 0 1.41494 0c0.0589094,0 0.106669,-0.0477598 0.106669,-0.106669 0,-0.026 -0.00930709,-0.0498268 -0.0247677,-0.0683346z" style="fill: rgb(255, 255, 255);"/>
      <path id="_274761888" class="fil3" d="M1.46838 3.21878c0.100965,0.0338819 0.239886,0.0690315 0.291626,0.237957 0.0204016,0.0665945 -0.0196063,0.0705276 0.132142,0.0957283 0.00624409,0.00103543 0.0136378,0.0016811 0.0218465,0.00329921 0.897083,0.176846 1.26826,0.000822835 1.59447,0.657528 -0.131213,-0.480693 0.710252,-1.34551 1.0977,-1.71442 -0.70228,0.053689 -2.30037,0.0916535 -3.14236,0.0916535l-0.0260945 0.189146 0.0306693 0.43911z" style="fill: rgb(255, 255, 255);"/>
      <path id="_274762440" class="fil4" d="M4.69057 2.4875c0.349992,0 0.666874,0.141878 0.896252,0.371256 0.22937,0.229374 0.371252,0.54626 0.371252,0.896252 0,0.349992 -0.141874,0.666874 -0.371252,0.896252 -0.229378,0.229378 -0.54626,0.371252 -0.896252,0.371252 -0.349992,0 -0.666874,-0.141874 -0.896252,-0.371252 -0.22937,-0.229374 -0.371252,-0.54626 -0.371252,-0.896252 0,-0.349992 0.141882,-0.666878 0.371252,-0.896252 0.229378,-0.229378 0.54626,-0.371256 0.896252,-0.371256z" style="fill: rgb(255, 255, 255);"/>
      <polygon id="_274762488" class="fil5" points="0.868579,1.81856 1.46496,2.58897 1.4684,3.22258 0.872024,2.38119 " style="fill: rgb(255, 255, 255);"/>
      <polygon id="_274762584" class="fil1" points="0.970382,2.11343 0.971827,2.34907 1.36669,2.90615 1.36515,2.62339 " style="fill: rgb(255, 255, 255);"/>
    </g>
    <rect class="fil6" width="6.82666" height="6.82666"/>
  </g>
</svg>